<svg width="520" height="520" viewBox="0 0 520 520" fill="none" xmlns="http://www.w3.org/2000/svg">
<rect width="520" height="520" fill="#1B2026"/>
<g clip-path="url(#clip0_5540_6876)">
<rect width="472" height="472" transform="translate(24 17)" fill="#1B2026"/>
<path d="M108.461 83.1849C101.168 92.4922 96.1647 102.747 95.5711 113.434C95.0623 122.827 100.659 131.445 109.224 135.064C128.983 143.424 177.319 151.955 258.134 95.3361C260.423 93.6987 262.713 92.1475 265.003 90.6825C161.461 20.964 110.072 81.289 108.461 83.1849Z" fill="#82F510" fill-opacity="0.5"/>
<path d="M433.162 113.348C432.654 103.351 427.481 93.6129 419.849 84.4779C419.085 83.7023 417.983 82.6682 416.796 81.3755C394.748 60.0894 302.23 -17.816 172.909 34.8391C172.909 34.8391 155.525 43.026 137.208 56.3837C119.061 69.9999 109.224 82.0649 108.461 83.0991C110.072 81.117 161.461 20.792 265.003 90.5966C266.868 91.8893 268.734 93.182 270.684 94.4746C351.33 151.439 399.666 143.079 419.425 134.806C427.99 131.273 433.586 122.655 433.162 113.262V113.348Z" fill="#82F510"/>
<path d="M185.799 481.416C197.416 483.14 208.61 482.45 218.023 477.624C226.249 473.401 230.828 464.18 229.641 454.787C226.842 433.242 210.052 386.361 121.35 343.53C118.806 342.324 116.347 341.031 113.973 339.825C106.341 465.818 183.424 480.899 185.884 481.33L185.799 481.416Z" fill="#82F510" fill-opacity="0.5"/>
<path d="M113.973 339.911C114.143 337.584 114.312 335.344 114.482 332.931C122.707 233.481 91.416 195.131 74.4559 181.86C67.1631 176.086 56.987 175.482 49.1854 180.567C40.8749 185.996 35.1933 195.39 31.2924 206.679C30.9532 207.799 30.614 209.178 30.19 210.902C23.0668 240.978 2.96906 361.283 112.447 448.841C112.447 448.841 128.135 460.044 148.656 469.524C169.348 478.659 184.527 481.244 185.799 481.502C183.34 481.072 106.256 465.99 113.888 339.997L113.973 339.911Z" fill="#82F510"/>
<path d="M486.503 214.263C482.178 203.232 475.988 193.666 467.169 187.806C459.452 182.635 449.276 183.238 441.898 189.012C424.938 202.198 393.392 240.461 401.279 339.911C401.533 342.755 401.703 345.513 401.787 348.27C513.046 291.996 487.266 216.59 486.418 214.263H486.503Z" fill="#82F510" fill-opacity="0.5"/>
<path d="M494.898 252.957C492.354 230.206 487.012 215.555 486.503 214.263C487.351 216.676 513.045 292.082 401.872 348.27C399.837 349.304 397.801 350.339 395.681 351.287C306.81 393.773 289.765 440.568 286.882 462.026C285.61 471.333 290.189 480.554 298.415 484.863C307.234 489.431 318.089 489.776 329.622 487.621C330.724 487.363 332.081 486.932 333.777 486.415C362.948 477.711 475.563 435.138 495.407 295.098C495.407 295.098 497.103 275.622 494.898 252.871V252.957Z" fill="#82F510"/>
<path fill-rule="evenodd" clip-rule="evenodd" d="M259.746 213.487C262.374 201.853 268.904 195.476 279.25 193.407C265.089 182.859 262.92 167.371 260.728 151.722C260.413 149.472 260.098 147.218 259.746 144.975C259.485 146.757 259.251 148.519 259.019 150.262C258.422 154.758 257.84 159.133 256.862 163.417C254.149 174.965 251.181 186.513 239.902 193.321C250.502 195.562 257.117 201.853 259.746 213.487ZM260.085 284.843C272.355 284.843 282.303 274.734 282.303 262.264C282.303 249.794 272.355 239.686 260.085 239.686C247.814 239.686 237.867 249.794 237.867 262.264C237.867 274.734 247.814 284.843 260.085 284.843ZM259.745 379.639C259.452 377.678 259.181 375.714 258.911 373.756C256.677 357.568 254.5 341.798 240.58 331.035C252.452 327.07 256.777 322.762 259.745 311.127C262.459 322.417 268.903 328.966 279.758 331.035C268.14 337.929 265.342 349.649 262.628 361.283C261.73 365.104 261.204 369.038 260.656 373.136L260.655 373.136L260.655 373.137C260.375 375.231 260.089 377.367 259.745 379.553V379.639ZM376.007 262.178C374.022 262.469 372.015 262.733 369.996 262.999C354.679 265.014 338.74 267.111 327.501 281.654C325.381 271.313 319.021 264.591 307.742 262.092C318.936 259.593 325.296 252.957 327.586 242.012C334.709 253.732 346.326 256.749 357.944 259.42C362.475 260.429 367.096 261.023 371.376 261.573L371.376 261.573L371.377 261.573L371.377 261.573C372.945 261.775 374.467 261.97 375.922 262.178H376.007ZM150.848 261.123C148.561 261.434 146.297 261.741 144.078 262.092C145.593 262.327 147.203 262.552 148.877 262.786C153.951 263.494 159.626 264.286 165.109 265.711C175.454 268.383 185.8 271.485 191.906 282.344C194.195 271.227 200.64 264.591 211.495 262.264C199.453 258.472 197.502 256.49 191.821 242.874C180.972 257.028 165.434 259.14 150.848 261.123ZM241.682 308.628L241.615 308.61C240.887 307.483 240.179 306.429 239.506 305.429C234.718 298.313 231.77 293.931 237.103 285.274C228.421 290.854 224.024 287.724 216.64 282.466C215.586 281.715 214.471 280.921 213.274 280.103C217.09 288.29 215.648 295.788 212.341 302.682C209.986 307.592 207.2 312.239 204.628 316.531C203.589 318.266 202.584 319.943 201.656 321.555C202.186 321.172 202.717 320.786 203.25 320.398C213.969 312.6 225.492 304.218 241.615 308.61L241.682 308.714V308.628ZM200.697 202.47L200.555 202.37V202.284L200.608 202.354L200.697 202.47ZM200.697 202.47C201.232 202.846 201.766 203.223 202.3 203.601C214.078 211.919 225.751 220.162 241.429 215.728C239.95 218.666 238.528 220.858 237.336 222.695C233.949 227.917 232.414 230.282 236.68 238.823C228.265 233.555 223.91 236.675 216.716 241.831C215.791 242.494 214.818 243.191 213.784 243.908C218.363 229.861 211.833 218.916 204.88 208.058C203.982 206.659 202.915 205.302 201.858 203.959L201.858 203.959C201.466 203.461 201.076 202.965 200.697 202.47ZM282.303 285.102C291.137 290.655 295.476 287.545 302.557 282.471C303.497 281.797 304.485 281.089 305.538 280.362C300.873 296.546 309.101 308.233 317.63 320.351C318.094 321.009 318.558 321.669 319.022 322.331C318.537 321.979 318.054 321.627 317.571 321.275L317.568 321.273C305.618 312.572 293.945 304.073 277.809 308.628C278.569 307.441 279.312 306.336 280.016 305.288L280.016 305.288C284.73 298.276 287.689 293.874 282.303 285.102ZM318.105 202.679C306.077 211.566 294.313 220.258 277.893 215.814H277.809C278.559 216.98 279.291 218.068 279.985 219.099C284.772 226.215 287.721 230.597 282.388 239.254C291.059 233.681 295.456 236.797 302.371 241.698C303.368 242.404 304.417 243.148 305.538 243.908C300.99 227.772 309.205 216.061 317.538 204.181C318.061 203.435 318.585 202.688 319.106 201.939C318.772 202.186 318.438 202.432 318.105 202.679Z" fill="#FF6B18"/>
</g>
<defs>
<clipPath id="clip0_5540_6876">
<rect width="472" height="472" fill="white" transform="translate(24 17)"/>
</clipPath>
</defs>
</svg>
