<?xml version="1.0" encoding="utf-8"?>
<!-- Generator: Adobe Adobe Illustrator 29.2.0, SVG Export Plug-In . SVG Version: 6.00 Build 0)  -->
<svg version="1.1" id="Layer_1" xmlns="http://www.w3.org/2000/svg" xmlns:xlink="http://www.w3.org/1999/xlink" x="0px" y="0px"
	 width="32px" height="32px" viewBox="0 0 32 32" style="enable-background:new 0 0 32 32;" xml:space="preserve">
<style type="text/css">
	.st0{fill:none;}
	.st1{font-family:'SourceSansPro-Regular';}
	.st2{font-size:12px;}
	.st3{fill:#34C9F5;}
	.st4{fill:#FFE14E;}
	.st5{fill:#EA0510;}
	.st6{fill:#F8A69A;}
	.st7{fill:#FE4F48;}
	.st8{fill:#FDE8D6;}
	.st9{fill:#FF8779;}
	.st10{fill:#C10104;}
	.st11{fill:#FFED9E;}
	.st12{fill:#915225;}
	.st13{fill:url(#SVGID_1_);}
	.st14{fill:#FEFDF5;}
	.st15{fill:#FDF9BF;}
	.st16{fill:#AD5409;}
	.st17{fill:#753606;}
	.st18{fill:#FBF0B2;}
	.st19{fill:#FAE08E;}
	.st20{fill:#BE8230;}
	.st21{fill:#EDD290;}
	.st22{fill:#FCFEE0;}
	.st23{fill:#B7742F;}
	.st24{fill:#EAB15B;}
	.st25{fill:#FEF6B0;}
	.st26{fill:#F1C46C;}
	.st27{fill:#774A22;}
	.st28{fill:#D69A49;}
	.st29{fill:#00A9F0;}
	.st30{fill:#5ED8FF;}
	.st31{fill:#1983D9;}
	.st32{fill:#9B6028;}
</style>
<rect x="-234.09" y="-84.37" class="st0" width="500" height="200"/>
<text transform="matrix(1 0 0 1 -234.0889 -75.8296)" class="st1 st2">https://discord.gg/YfY4u3Qb5Q</text>
<g>
	<g>
		<polyline class="st3" points="16,0 2.38,8.01 2.38,23.99 16,32 		"/>
		<polyline class="st4" points="16,32 29.62,23.99 29.62,8.01 16,0 		"/>
	</g>
	<g>
		<g>
			<polygon class="st5" points="12.83,6.36 16,8.92 16,27.84 12.25,25.85 9.65,23.63 7.95,21.49 5,17.6 4.26,16.63 4.26,11 
				7.93,6.54 			"/>
			<polygon class="st6" points="4.26,11 6.51,11.89 10.79,9.45 7.93,6.54 			"/>
			<polygon class="st7" points="14.87,11.83 14.87,16.74 10.6,19.17 6.51,16.74 6.51,11.89 10.79,9.45 			"/>
			<polygon class="st8" points="6.51,16.74 10.82,14.61 10.82,9.45 6.51,11.89 			"/>
			<polygon class="st9" points="10.82,14.61 10.6,19.17 6.51,16.74 			"/>
			<polygon class="st10" points="12.83,6.36 10.79,9.45 14.87,11.83 15.47,10.29 16,8.92 			"/>
			<polygon class="st10" points="14.87,16.74 16,17.8 16,25.41 14.17,23.22 			"/>
			<polygon class="st7" points="10.6,19.17 9.65,23.63 12.25,25.85 14.17,23.22 			"/>
			<polygon class="st10" points="4.26,16.63 6.51,16.74 10.6,19.17 6.84,20.02 			"/>
		</g>
	</g>
	<polygon class="st11" points="18.85,3.74 17.9,4.9 16.96,4.9 16,3.74 	"/>
	<polygon class="st12" points="18.85,3.74 17.9,4.9 17.9,6.46 18.86,5.52 	"/>
	
		<linearGradient id="SVGID_1_" gradientUnits="userSpaceOnUse" x1="17.603" y1="15.6806" x2="21.6665" y2="28.7366" gradientTransform="matrix(1 3.544796e-03 -3.544796e-03 1 -0.0161 -6.3311)">
		<stop  offset="0.3109" style="stop-color:#FEFDCC"/>
		<stop  offset="0.4458" style="stop-color:#FBF7C2"/>
		<stop  offset="0.6723" style="stop-color:#F5E7A8"/>
		<stop  offset="0.9611" style="stop-color:#EACE7E"/>
		<stop  offset="1" style="stop-color:#E8CA78"/>
	</linearGradient>
	<polygon class="st13" points="16.96,4.9 17.9,4.9 17.9,6.46 21.27,7.09 22.86,8.27 23.64,9.75 23.64,11.23 21.97,11.23 21.01,9.56 
		19.39,8.82 17.9,8.72 17.9,13.47 22.9,15.38 24.93,18.1 24.54,21.61 22.04,24.22 19.99,25.13 17.9,25.13 17.9,27.11 16.97,27.11 
		16.97,19.83 17.9,19.83 17.9,22.56 19.92,22.56 20.93,22.15 22.24,20.74 22.24,18.07 19.83,16.7 18.31,16.27 16.96,16.28 	"/>
	<polygon class="st12" points="24.53,8.94 23.64,9.75 23.64,11.24 24.53,12.22 	"/>
	<rect x="16.96" y="4.9" class="st14" width="0.32" height="11.37"/>
	<path class="st15" d="M19.92,22.56l1.01-0.41l0.01-1.41c0,0-0.59,0.51-1.02,0.71L19.92,22.56z"/>
	<polygon class="st16" points="17.9,25.13 18.86,26.27 18.86,28.33 17.9,27.12 	"/>
	<polygon class="st17" points="19.99,25.13 22.04,24.22 22.75,25.16 20.68,26.14 	"/>
	<polygon class="st12" points="17.9,25.13 18.86,26.27 20.68,26.15 19.99,25.13 	"/>
	<polygon class="st18" points="16,28.33 16.97,27.11 16.97,19.83 16,18.87 	"/>
	<polygon class="st17" points="16,28.33 16.97,27.11 17.9,27.11 18.86,28.33 	"/>
	<polygon class="st19" points="18.86,18.87 17.9,19.83 16.97,19.83 16,18.87 	"/>
	<polygon class="st14" points="17.29,27.12 16.97,27.11 16.96,19.83 17.28,19.83 	"/>
	<polygon class="st16" points="17.9,22.56 18.86,21.42 18.86,19.94 17.9,21.03 	"/>
	<polygon class="st12" points="17.9,19.83 18.86,18.87 18.86,19.94 17.9,21.03 	"/>
	<path class="st18" d="M17.9,22.56l0.95-1.13c0,0,0.59,0.27,1.06,0.02l0,1.11H17.9z"/>
	<path class="st15" d="M20.93,20.73l-0.01,1.41l1.31-1.4l-0.79-0.76C21.45,19.99,21.53,20.26,20.93,20.73z"/>
	<polygon class="st16" points="22.04,24.22 22.75,25.16 25.63,22.01 24.54,21.61 	"/>
	<polygon class="st12" points="24.93,18.1 26,17.72 25.63,22.01 24.54,21.61 	"/>
	<polygon class="st20" points="22.9,15.38 23.58,14.45 26,17.72 24.93,18.1 	"/>
	<polygon class="st21" points="22.24,20.74 22.24,18.07 21.45,18.56 21.45,19.99 	"/>
	<polygon class="st20" points="19.79,17.63 21.45,18.56 22.24,18.07 19.83,16.7 	"/>
	<polygon class="st12" points="16,17.2 16.96,16.28 18.31,16.27 18.19,17.2 	"/>
	<polygon class="st16" points="18.19,17.2 18.31,16.27 19.83,16.7 19.79,17.63 	"/>
	<polygon class="st11" points="16,17.2 16.96,16.28 16.96,14.82 16,15.79 	"/>
	<polygon class="st22" points="16,3.74 16.96,4.9 16.96,14.82 16,15.79 	"/>
	<polygon class="st12" points="17.9,13.47 18.86,12.86 18.86,9.93 17.9,8.72 	"/>
	<polygon class="st21" points="17.89,13.47 18.86,12.86 23.58,14.45 22.9,15.38 	"/>
	<path class="st23" d="M19.39,8.82l0,1.08c0,0,0.79,0.26,0.98,0.64l0.65-0.99L19.39,8.82z"/>
	<path class="st24" d="M21.01,9.56l0.96,1.66l-0.74,0.99c0,0-0.3-0.95-0.86-1.66L21.01,9.56z"/>
	<polygon class="st16" points="21.97,11.23 23.64,11.23 24.52,12.21 21.23,12.21 	"/>
	<path class="st17" d="M18.86,9.93c0,0,0.37-0.1,0.53-0.02l0-1.08l-1.49-0.1L18.86,9.93z"/>
	<polygon class="st11" points="17.9,8.72 17.28,9.75 17.28,12.55 17.9,13.47 	"/>
	<polygon class="st25" points="17.9,13.47 17.28,12.55 17.28,14.64 	"/>
	<polygon class="st22" points="17.28,14.64 20.97,14.65 17.89,13.47 	"/>
	<polygon class="st26" points="21.27,7.09 21.81,6.16 18.86,5.52 17.92,6.46 	"/>
	<polygon class="st27" points="22.86,8.27 23.64,9.75 24.54,8.94 23.73,7.51 	"/>
	<polygon class="st28" points="21.27,7.09 21.81,6.16 23.73,7.51 22.86,8.27 	"/>
	<polygon class="st11" points="17.28,16.28 18.31,16.27 17.28,14.64 	"/>
	<g>
		<polygon class="st29" points="3.17,8.48 2.38,8.01 2.38,23.99 3.17,23.52 		"/>
		<polygon class="st26" points="28.83,8.48 29.62,8.01 16,0 16,0.93 		"/>
		<polygon class="st30" points="16,0.93 16,0 2.38,8.01 3.17,8.48 		"/>
		<polygon class="st31" points="3.17,23.52 2.38,23.99 16,32 16,31.05 		"/>
		<polygon class="st20" points="28.83,8.48 28.83,23.52 29.62,23.99 29.62,8.01 		"/>
		<polygon class="st32" points="16,31.05 16,32 29.62,23.99 28.83,23.52 		"/>
	</g>
</g>
</svg>
