<svg width="24" height="24" viewBox="0 0 24 24" fill="none" xmlns="http://www.w3.org/2000/svg">
<rect x="0.5" y="0.5" width="23" height="23" rx="11.5" fill="#F2F2F2"/>
<rect x="0.5" y="0.5" width="23" height="23" rx="11.5" stroke="#F2F2F2"/>
<path fill-rule="evenodd" clip-rule="evenodd" d="M9.50376 5.62497C9.34591 5.35157 8.95131 5.35157 8.79347 5.62497L3.11111 15.4671C2.79542 16.0139 3.19003 16.6974 3.8214 16.6974H8.09409L11.9952 9.94035L9.50376 5.62497Z" fill="#70E766"/>
<path d="M11.9813 14.0127L13.757 16.7808H10.2056L11.9813 14.0127Z" fill="#02C57F"/>
<path fill-rule="evenodd" clip-rule="evenodd" d="M15.2064 5.60543C15.0485 5.33204 14.6539 5.33204 14.4961 5.60544L11.9956 9.93637L15.8878 16.6778H20.1784C20.8098 16.6778 21.2044 15.9944 20.8887 15.4476L15.2064 5.60543Z" fill="#02C57F"/>
</svg>
