<svg viewBox="0 0 24 24" xmlns="http://www.w3.org/2000/svg" xml:space="preserve" style="fill-rule:evenodd;clip-rule:evenodd;stroke-linejoin:round;stroke-miterlimit:2;">
    <circle cx="12" cy="12" r="11.252" style="fill:none;stroke:url(#_Linear1);stroke-width:1.5px;"/>
    <circle cx="12" cy="12" r="12" style="fill:rgb(12,43,77);"/>
    <circle cx="12" cy="12" r="11.252" style="fill:none;stroke:url(#_Linear2);stroke-width:1.5px;"/>
    <path d="M12.735,13.264c-0.186,-0.042 -1.544,-0.358 -1.696,-0.391c-1.229,-0.265 -2.432,-0.645 -3.241,-1.154c-0.86,-0.541 -1.324,-1.249 -1.324,-2.043c0,-0.717 0.188,-1.455 0.747,-2.09c0.7,-0.795 2.094,-1.489 4.84,-1.489c3.281,-0 4.528,1.45 5.003,2.263l-0,-0.001l0.01,0.019c0.003,0.005 0.007,0.011 0.01,0.017c0.004,0.008 0.009,0.016 0.013,0.025l0.439,0.784l-0.88,0.439l0.002,-0.005c-0.415,0.189 -0.902,0.05 -1.132,-0.354c-0.311,-0.544 -1.215,-1.393 -3.465,-1.393c-2.612,-0 -3.536,0.585 -3.744,1.38c-0.031,0.139 -0.074,0.539 0.356,0.877c0.027,0.018 0.054,0.036 0.081,0.053c0.58,0.365 1.411,0.631 2.285,0.835c0.264,0.062 1.623,0.378 1.696,0.393c1.31,0.27 2.617,0.695 3.478,1.236c0.859,0.542 1.323,1.25 1.323,2.044c0,0.716 -0.188,1.455 -0.746,2.089c-0.7,0.796 -2.094,1.49 -4.841,1.49c-3.438,-0 -4.656,-1.578 -5.079,-2.399l-0.001,0.002c-0.158,-0.328 -0.291,-0.677 -0.395,-1.048l0.695,-0.358c0.004,-0.002 0.008,-0.004 0.012,-0.006l0.019,-0.009l-0,0c0.01,-0.004 0.021,-0.009 0.031,-0.014c0.457,-0.19 0.983,0.026 1.174,0.483c0.187,0.449 0.992,1.555 3.544,1.555c2.611,-0 3.535,-0.585 3.744,-1.379c0.111,-0.466 -0.202,-0.769 -0.405,-0.912c-0.01,-0.006 -0.021,-0.013 -0.031,-0.019c-0.037,-0.023 -0.074,-0.046 -0.112,-0.068c-0.005,-0.002 -0.008,-0.004 -0.011,-0.005l0.008,0.004c-0.627,-0.365 -1.504,-0.645 -2.407,-0.851Z" style="fill:rgb(50,201,164);fill-opacity:0.4;"/>
    <path d="M15.134,14.111l-0.006,-0.003c0,-0 0.002,0.001 0.006,0.003Zm0.008,0.004c-0.756,-0.44 -1.876,-0.757 -2.967,-0.968c-0.486,-0.094 -0.805,-0.565 -0.711,-1.051c0.094,-0.486 0.565,-0.805 1.051,-0.711c1.382,0.267 2.789,0.708 3.698,1.28c0.859,0.542 1.323,1.25 1.323,2.044c0,0.716 -0.188,1.455 -0.746,2.089c-0.7,0.796 -2.094,1.49 -4.841,1.49c-3.438,-0 -4.656,-1.578 -5.079,-2.399l-0.001,0.002c-0.158,-0.328 -0.291,-0.677 -0.395,-1.048l0.695,-0.358c0.004,-0.002 0.031,-0.015 0.031,-0.015l-0,0c0.01,-0.004 0.021,-0.009 0.031,-0.014c0.457,-0.19 0.983,0.026 1.174,0.483c0.187,0.449 0.992,1.555 3.544,1.555c2.611,-0 3.535,-0.585 3.744,-1.379c0.111,-0.466 -0.202,-0.769 -0.405,-0.912c-0.01,-0.006 -0.021,-0.013 -0.031,-0.019c-0.037,-0.023 -0.074,-0.046 -0.112,-0.068c-0.005,-0.002 -0.008,-0.004 -0.011,-0.005l0.008,0.004Z" style="fill:url(#_Linear3);"/>
    <path d="M12.735,19.193c0,0.936 -0.759,1.696 -1.696,1.696c0,-0 0,-0 0,-0l0,-9.478l1.696,0l0,7.782Z" style="fill:url(#_Linear4);"/>
    <path d="M12.735,19.193c0,0.936 -0.759,1.696 -1.696,1.696c0,-0 0,-0 0,-0l0,-9.478l1.696,0l0,7.782Z" style="fill:url(#_Linear5);"/>
    <path d="M11.039,4.826c0,-0.937 0.759,-1.696 1.696,-1.696c0,-0 0,-0 0,-0l0,9.477l-1.696,0l0,-7.781Z" style="fill:url(#_Linear6);"/>
    <path d="M11.039,4.826c0,-0.937 0.759,-1.696 1.696,-1.696c0,-0 0,-0 0,-0l0,9.477l-1.696,0l0,-7.781Z" style="fill:url(#_Linear7);"/>
    <path d="M11.039,4.826c0,-0.45 0.179,-0.881 0.497,-1.199c0.318,-0.318 0.749,-0.497 1.199,-0.497c0,-0 0,-0 0,-0l0,16.063c0,0.449 -0.179,0.881 -0.497,1.199c-0.318,0.318 -0.749,0.497 -1.199,0.497c0,-0 0,-0 0,-0l0,-16.063Z" style="fill:url(#_Linear8);"/>
    <path d="M8.673,10.148c0.027,0.018 0.054,0.036 0.081,0.053c0.755,0.475 1.934,0.782 3.082,1.004c0.486,0.094 0.804,0.565 0.71,1.051c-0.094,0.486 -0.565,0.805 -1.051,0.711c-1.381,-0.267 -2.788,-0.676 -3.697,-1.248c-0.86,-0.541 -1.324,-1.249 -1.324,-2.043c0,-0.717 0.188,-1.455 0.747,-2.09c0.7,-0.795 2.094,-1.489 4.84,-1.489c3.281,-0 4.528,1.45 5.003,2.263l-0,-0.001l0.01,0.019c0.003,0.005 0.007,0.011 0.01,0.017c0.004,0.008 0.009,0.016 0.013,0.025l0.439,0.784l-0.88,0.439l0.002,-0.005c-0.415,0.189 -0.902,0.05 -1.132,-0.354c-0.311,-0.544 -1.215,-1.393 -3.465,-1.393c-2.612,-0 -3.536,0.585 -3.744,1.38c-0.031,0.139 -0.074,0.539 0.356,0.877Z" style="fill:url(#_Linear9);"/>
    <defs>
        <linearGradient id="_Linear1" x1="0" y1="0" x2="1" y2="0" gradientUnits="userSpaceOnUse" gradientTransform="matrix(1.69331e-15,27.6538,-27.6538,1.69331e-15,12,-0.626205)"><stop offset="0" style="stop-color:rgb(50,201,164);stop-opacity:1"/><stop offset="1" style="stop-color:rgb(50,201,164);stop-opacity:0"/></linearGradient>
        <linearGradient id="_Linear2" x1="0" y1="0" x2="1" y2="0" gradientUnits="userSpaceOnUse" gradientTransform="matrix(2.02841e-15,33.1264,-33.1264,2.02841e-15,12,-0.136929)"><stop offset="0" style="stop-color:rgb(50,201,164);stop-opacity:1"/><stop offset="1" style="stop-color:rgb(50,201,164);stop-opacity:0"/></linearGradient>
        <linearGradient id="_Linear3" x1="0" y1="0" x2="1" y2="0" gradientUnits="userSpaceOnUse" gradientTransform="matrix(4.16497,-4.66064,4.66064,4.16497,6.87411,16.6699)"><stop offset="0" style="stop-color:rgb(50,201,164);stop-opacity:1"/><stop offset="1" style="stop-color:rgb(50,201,164);stop-opacity:0"/></linearGradient>
        <linearGradient id="_Linear4" x1="0" y1="0" x2="1" y2="0" gradientUnits="userSpaceOnUse" gradientTransform="matrix(-2.46519e-32,-4.14066,4.14066,2.46519e-32,13.5386,20.2906)"><stop offset="0" style="stop-color:rgb(50,201,164);stop-opacity:1"/><stop offset="1" style="stop-color:rgb(50,201,164);stop-opacity:0"/></linearGradient>
        <linearGradient id="_Linear5" x1="0" y1="0" x2="1" y2="0" gradientUnits="userSpaceOnUse" gradientTransform="matrix(-2.46519e-32,-4.14066,4.14066,2.46519e-32,13.5386,20.2906)"><stop offset="0" style="stop-color:rgb(50,201,164);stop-opacity:1"/><stop offset="1" style="stop-color:rgb(50,201,164);stop-opacity:0"/></linearGradient>
        <linearGradient id="_Linear6" x1="0" y1="0" x2="1" y2="0" gradientUnits="userSpaceOnUse" gradientTransform="matrix(-9.86076e-32,4.14066,-4.14066,-9.86076e-32,10.2356,3.72799)"><stop offset="0" style="stop-color:rgb(50,201,164);stop-opacity:1"/><stop offset="1" style="stop-color:rgb(50,201,164);stop-opacity:0"/></linearGradient>
        <linearGradient id="_Linear7" x1="0" y1="0" x2="1" y2="0" gradientUnits="userSpaceOnUse" gradientTransform="matrix(-9.86076e-32,4.14066,-4.14066,-9.86076e-32,10.2356,3.72799)"><stop offset="0" style="stop-color:rgb(50,201,164);stop-opacity:1"/><stop offset="1" style="stop-color:rgb(50,201,164);stop-opacity:0"/></linearGradient>
        <linearGradient id="_Linear8" x1="0" y1="0" x2="1" y2="0" gradientUnits="userSpaceOnUse" gradientTransform="matrix(-9.86076e-32,20.272,-20.272,-7.88861e-31,10.2356,3.72799)"><stop offset="0" style="stop-color:rgb(50,201,164);stop-opacity:1"/><stop offset="1" style="stop-color:rgb(50,201,164);stop-opacity:0"/></linearGradient>
        <linearGradient id="_Linear9" x1="0" y1="0" x2="1" y2="0" gradientUnits="userSpaceOnUse" gradientTransform="matrix(-0.990128,4.02183,-4.02183,-0.990128,14.4529,7.34684)"><stop offset="0" style="stop-color:rgb(50,201,164);stop-opacity:1"/><stop offset="1" style="stop-color:rgb(50,201,164);stop-opacity:0"/></linearGradient>
    </defs>
</svg>
